<svg xmlns="http://www.w3.org/2000/svg" viewBox="0 0 200 31">
  <path fill="#444" d="M43.746 15.173v-.115c1.876-.307 3.302-1.002 4.278-2.084.976-1.083 1.464-2.437 1.464-4.064 0-2.383-.8-4.163-2.399-5.342C45.49 2.4 43.4 2 40 2h-8v28h8c3.098 0 5.949-.806 7.637-2.202 1.687-1.396 2.531-3.389 2.531-5.976 0-1.934-.519-3.442-1.558-4.525s-2.661-1.797-4.91-2.124zM34 4h5c2.631 0 5.108-.048 6.4.798 1.328.8 2 2.2 2 4.073 0 1.871-.588 3.245-1.766 4.1C44.485 13.9 42.6 14 40 14h-6V4zm6 24h-6V16h6c5.389 0 8.1 2 8.1 5.822C48.09 26 45.1 28 40 28zM63.045 8c-2.809 0-5.018.965-6.628 2.895-1.61 1.929-2.416 4.623-2.416 8.079 0 2.2.4 4.1 1.1 5.809s1.767 3 3.1 3.9 2.934 1.3 4.7 1.345c2.833 0 5.056-.972 6.666-2.914s2.415-4.642 2.415-8.099c0-3.404-.795-6.084-2.387-8.04C68.035 9 65.8 8 63 8.008zm5.178 17.794c-1.23 1.631-2.969 2.446-5.215 2.446-2.247 0-3.986-.815-5.215-2.446-1.229-1.63-1.844-3.901-1.844-6.812 0-2.936.609-5.207 1.826-6.812 1.217-1.604 2.949-2.407 5.197-2.407 2.246 0 4 .8 5.2 2.417 1.242 1.6 1.9 3.9 1.9 6.802-.006 2.918-.572 5.218-1.872 6.812zM86.571 19.7c-.81-.552-2.102-1.172-3.877-1.861-2.126-.818-3.555-1.559-4.286-2.222-.73-.663-1.096-1.546-1.096-2.651 0-1.014.471-1.806 1.414-2.378.941-.572 2.216-.858 3.822-.858 1.654 0 3.4.4 5.4 1.287l.671-1.754c-1.909-.857-3.926-1.287-6.052-1.287-2.223 0-3.953.462-5.191 1.384-1.238.923-1.856 2.177-1.856 3.8 0 1 .2 1.8.6 2.543.404.7 1 1.3 1.8 1.871.798.6 2.2 1.2 4.2 2 1.836.7 3.2 1.4 4 2.144.804.7 1.2 1.6 1.2 2.69 0 1.157-.505 2.083-1.513 2.8-1.009.695-2.485 1.043-4.43 1.043-2.199 0-4.289-.533-6.27-1.599v2.086c1.546.9 3.6 1.3 6.3 1.3 2.464 0 4.366-.51 5.707-1.53S89 26 89 24.089c0-.948-.203-1.773-.607-2.476-.406-.713-.993-1.313-1.793-1.881zm16.995.032c-.81-.552-2.102-1.172-3.877-1.861-2.127-.818-3.555-1.559-4.285-2.222-.731-.663-1.097-1.546-1.097-2.651 0-1.014.472-1.806 1.413-2.378.942-.572 2.217-.858 3.823-.858 1.655 0 3.4.4 5.4 1.287l.67-1.754c-1.908-.857-3.926-1.287-6.052-1.287-2.223 0-3.953.462-5.19 1.4-1.238.923-1.857 2.177-1.857 3.762 0 1 .2 1.8.6 2.543.404.7 1 1.3 1.8 1.9.797.6 2.2 1.2 4.1 1.979 1.836.7 3.2 1.4 4 2.144.803.7 1.2 1.6 1.2 2.7 0 1.157-.505 2.083-1.514 2.777-1.008.695-2.484 1.043-4.43 1.043-2.198 0-4.288-.533-6.269-1.599v2.086c1.546.9 3.6 1.3 6.3 1.306 2.465 0 4.367-.51 5.707-1.53 1.342-1.02 2.012-2.479 2.012-4.376 0-.948-.202-1.773-.607-2.476-.431-.767-1.013-1.367-1.813-1.935zM111 30h5V0h-5v30zm37-21h-5l-5.796 6.5L135 18.279V0h-5v30h5v-7l2.242-2.427L144 30h5l-8.773-12.232L148 9zm12.078 17.702c-1.877 0-3.33-.554-4.363-1.662-1.032-1.107-1.652-2.978-1.715-5.04h14l-.008-2.156c0-2.984-.801-5.329-2.398-7.032-1.6-1.704-3.777-2.556-6.535-2.556-2.973 0-5.308.993-7.008 2.978-1.699 1.986-2.549 4.714-2.549 8.186 0 3.4.9 6 2.7 8 1.832 1.9 4.4 2.9 7.6 2.892 1.422 0 2.688-.109 3.795-.327 1.108-.218 2.204-.589 3.287-1.115V25.2c-1.222.551-2.364.945-3.428 1.182-.995.218-2.156.318-3.356.32zM155.668 13c.85-.909 1.98-1.364 3.391-1.364s2.518.5 3.3 1.355c.805.9 1.2 2.2 1.2 3.987h-9.481c.233-1.678.722-3.078 1.622-3.937z"/>
  <path fill="#34628A" d="M124 9h-2l-1.983 18.422 2.997 3.565 2.997-3.565L124 9zm-2.484-2.5c.348.4.8.5 1.5.532.626 0 1.113-.177 1.461-.532s.522-.84.522-1.456c0-.647-.175-1.145-.522-1.495-.348-.349-.835-.524-1.461-.524-.646 0-1.143.175-1.49.524-.349.35-.522.848-.522 1.5-.011.551.196 1.051.496 1.434z"/>
  <path fill="#437DB0" d="M176 24h18v-2h-18v2zm0-7v2h24v-2h-24zM6 24h18v-2H6v2zm-6-5h24v-2H0v2z"/>
</svg>
